<svg id="visual" viewBox="0 0 900 600" width="900" height="600" xmlns="http://www.w3.org/2000/svg" xmlns:xlink="http://www.w3.org/1999/xlink" version="1.1"><path d="M0 109L13.7 110C27.3 111 54.7 113 82 114C109.3 115 136.7 115 163.8 110C191 105 218 95 245.2 86C272.3 77 299.7 69 327 62C354.3 55 381.7 49 409 60C436.3 71 463.7 99 491 119C518.3 139 545.7 151 573 144C600.3 137 627.7 111 654.8 94C682 77 709 69 736.2 76C763.3 83 790.7 105 818 108C845.3 111 872.7 95 886.3 87L900 79L900 0L886.3 0C872.7 0 845.3 0 818 0C790.7 0 763.3 0 736.2 0C709 0 682 0 654.8 0C627.7 0 600.3 0 573 0C545.7 0 518.3 0 491 0C463.7 0 436.3 0 409 0C381.7 0 354.3 0 327 0C299.7 0 272.3 0 245.2 0C218 0 191 0 163.8 0C136.7 0 109.3 0 82 0C54.7 0 27.3 0 13.7 0L0 0Z" fill="#ffffff"></path><path d="M0 151L13.7 158C27.3 165 54.7 179 82 189C109.3 199 136.7 205 163.8 203C191 201 218 191 245.2 173C272.3 155 299.7 129 327 116C354.3 103 381.7 103 409 119C436.3 135 463.7 167 491 190C518.3 213 545.7 227 573 220C600.3 213 627.7 185 654.8 157C682 129 709 101 736.2 102C763.3 103 790.7 133 818 146C845.3 159 872.7 155 886.3 153L900 151L900 77L886.3 85C872.7 93 845.3 109 818 106C790.7 103 763.3 81 736.2 74C709 67 682 75 654.8 92C627.7 109 600.3 135 573 142C545.7 149 518.3 137 491 117C463.7 97 436.3 69 409 58C381.7 47 354.3 53 327 60C299.7 67 272.3 75 245.2 84C218 93 191 103 163.8 108C136.7 113 109.3 113 82 112C54.7 111 27.3 109 13.7 108L0 107Z" fill="#a8d3c3"></path><path d="M0 193L13.7 203C27.3 213 54.7 233 82 252C109.3 271 136.7 289 163.8 293C191 297 218 287 245.2 271C272.3 255 299.7 233 327 218C354.3 203 381.7 195 409 212C436.3 229 463.7 271 491 284C518.3 297 545.7 281 573 259C600.3 237 627.7 209 654.8 180C682 151 709 121 736.2 125C763.3 129 790.7 167 818 195C845.3 223 872.7 241 886.3 250L900 259L900 149L886.3 151C872.7 153 845.3 157 818 144C790.7 131 763.3 101 736.2 100C709 99 682 127 654.8 155C627.7 183 600.3 211 573 218C545.7 225 518.3 211 491 188C463.7 165 436.3 133 409 117C381.7 101 354.3 101 327 114C299.7 127 272.3 153 245.2 171C218 189 191 199 163.8 201C136.7 203 109.3 197 82 187C54.7 177 27.3 163 13.7 156L0 149Z" fill="#49a689"></path><path d="M0 247L13.7 260C27.3 273 54.7 299 82 322C109.3 345 136.7 365 163.8 365C191 365 218 345 245.2 321C272.3 297 299.7 269 327 255C354.3 241 381.7 241 409 267C436.3 293 463.7 345 491 357C518.3 369 545.7 341 573 315C600.3 289 627.7 265 654.8 242C682 219 709 197 736.2 194C763.3 191 790.7 207 818 228C845.3 249 872.7 275 886.3 288L900 301L900 257L886.3 248C872.7 239 845.3 221 818 193C790.7 165 763.3 127 736.2 123C709 119 682 149 654.8 178C627.7 207 600.3 235 573 257C545.7 279 518.3 295 491 282C463.7 269 436.3 227 409 210C381.7 193 354.3 201 327 216C299.7 231 272.3 253 245.2 269C218 285 191 295 163.8 291C136.7 287 109.3 269 82 250C54.7 231 27.3 211 13.7 201L0 191Z" fill="#009473"></path><path d="M0 325L13.7 330C27.3 335 54.7 345 82 362C109.3 379 136.7 403 163.8 424C191 445 218 463 245.2 453C272.3 443 299.7 405 327 394C354.3 383 381.7 399 409 430C436.3 461 463.7 507 491 522C518.3 537 545.7 521 573 502C600.3 483 627.7 461 654.8 450C682 439 709 439 736.2 451C763.3 463 790.7 487 818 495C845.3 503 872.7 495 886.3 491L900 487L900 299L886.3 286C872.7 273 845.3 247 818 226C790.7 205 763.3 189 736.2 192C709 195 682 217 654.8 240C627.7 263 600.3 287 573 313C545.7 339 518.3 367 491 355C463.7 343 436.3 291 409 265C381.7 239 354.3 239 327 253C299.7 267 272.3 295 245.2 319C218 343 191 363 163.8 363C136.7 363 109.3 343 82 320C54.7 297 27.3 271 13.7 258L0 245Z" fill="#49a689"></path><path d="M0 355L13.7 362C27.3 369 54.7 383 82 402C109.3 421 136.7 445 163.8 468C191 491 218 513 245.2 502C272.3 491 299.7 447 327 429C354.3 411 381.7 419 409 446C436.3 473 463.7 519 491 538C518.3 557 545.7 549 573 534C600.3 519 627.7 497 654.8 489C682 481 709 487 736.2 498C763.3 509 790.7 525 818 528C845.3 531 872.7 521 886.3 516L900 511L900 485L886.3 489C872.7 493 845.3 501 818 493C790.7 485 763.3 461 736.2 449C709 437 682 437 654.8 448C627.7 459 600.3 481 573 500C545.7 519 518.3 535 491 520C463.7 505 436.3 459 409 428C381.7 397 354.3 381 327 392C299.7 403 272.3 441 245.2 451C218 461 191 443 163.8 422C136.7 401 109.3 377 82 360C54.7 343 27.3 333 13.7 328L0 323Z" fill="#a8d3c3"></path><path d="M0 601L13.7 601C27.3 601 54.7 601 82 601C109.3 601 136.7 601 163.8 601C191 601 218 601 245.2 601C272.3 601 299.7 601 327 601C354.3 601 381.7 601 409 601C436.3 601 463.7 601 491 601C518.3 601 545.7 601 573 601C600.3 601 627.7 601 654.8 601C682 601 709 601 736.2 601C763.3 601 790.7 601 818 601C845.3 601 872.7 601 886.3 601L900 601L900 509L886.3 514C872.7 519 845.3 529 818 526C790.7 523 763.3 507 736.2 496C709 485 682 479 654.8 487C627.7 495 600.3 517 573 532C545.7 547 518.3 555 491 536C463.7 517 436.3 471 409 444C381.7 417 354.3 409 327 427C299.7 445 272.3 489 245.2 500C218 511 191 489 163.8 466C136.7 443 109.3 419 82 400C54.7 381 27.3 367 13.7 360L0 353Z" fill="#ffffff"></path></svg>