<svg id="visual" viewBox="0 0 900 600" width="900" height="600" xmlns="http://www.w3.org/2000/svg" xmlns:xlink="http://www.w3.org/1999/xlink" version="1.1"><path d="M0 49L13.7 69C27.3 89 54.7 129 82 160C109.3 191 136.7 213 163.8 227C191 241 218 247 245.2 230C272.3 213 299.7 173 327 156C354.3 139 381.7 145 409 156C436.3 167 463.7 183 491 180C518.3 177 545.7 155 573 158C600.3 161 627.7 189 654.8 212C682 235 709 253 736.2 238C763.3 223 790.7 175 818 152C845.3 129 872.7 131 886.3 132L900 133L900 0L886.3 0C872.7 0 845.3 0 818 0C790.7 0 763.3 0 736.2 0C709 0 682 0 654.8 0C627.7 0 600.3 0 573 0C545.7 0 518.3 0 491 0C463.7 0 436.3 0 409 0C381.7 0 354.3 0 327 0C299.7 0 272.3 0 245.2 0C218 0 191 0 163.8 0C136.7 0 109.3 0 82 0C54.7 0 27.3 0 13.7 0L0 0Z" fill="#ffffff"></path><path d="M0 139L13.7 161C27.3 183 54.7 227 82 257C109.3 287 136.7 303 163.8 305C191 307 218 295 245.2 280C272.3 265 299.7 247 327 241C354.3 235 381.7 241 409 249C436.3 257 463.7 267 491 260C518.3 253 545.7 229 573 224C600.3 219 627.7 233 654.8 249C682 265 709 283 736.2 276C763.3 269 790.7 237 818 224C845.3 211 872.7 217 886.3 220L900 223L900 131L886.3 130C872.7 129 845.3 127 818 150C790.7 173 763.3 221 736.2 236C709 251 682 233 654.8 210C627.7 187 600.3 159 573 156C545.7 153 518.3 175 491 178C463.7 181 436.3 165 409 154C381.7 143 354.3 137 327 154C299.7 171 272.3 211 245.2 228C218 245 191 239 163.8 225C136.7 211 109.3 189 82 158C54.7 127 27.3 87 13.7 67L0 47Z" fill="#ffc59d"></path><path d="M0 223L13.7 244C27.3 265 54.7 307 82 328C109.3 349 136.7 349 163.8 351C191 353 218 357 245.2 346C272.3 335 299.7 309 327 292C354.3 275 381.7 267 409 274C436.3 281 463.7 303 491 308C518.3 313 545.7 301 573 294C600.3 287 627.7 285 654.8 296C682 307 709 331 736.2 321C763.3 311 790.7 267 818 256C845.3 245 872.7 267 886.3 278L900 289L900 221L886.3 218C872.7 215 845.3 209 818 222C790.7 235 763.3 267 736.2 274C709 281 682 263 654.8 247C627.7 231 600.3 217 573 222C545.7 227 518.3 251 491 258C463.7 265 436.3 255 409 247C381.7 239 354.3 233 327 239C299.7 245 272.3 263 245.2 278C218 293 191 305 163.8 303C136.7 301 109.3 285 82 255C54.7 225 27.3 181 13.7 159L0 137Z" fill="#ff8c3b"></path><path d="M0 355L13.7 368C27.3 381 54.7 407 82 426C109.3 445 136.7 457 163.8 463C191 469 218 469 245.2 461C272.3 453 299.7 437 327 416C354.3 395 381.7 369 409 378C436.3 387 463.7 431 491 427C518.3 423 545.7 371 573 350C600.3 329 627.7 339 654.8 358C682 377 709 405 736.2 406C763.3 407 790.7 381 818 381C845.3 381 872.7 407 886.3 420L900 433L900 287L886.3 276C872.7 265 845.3 243 818 254C790.7 265 763.3 309 736.2 319C709 329 682 305 654.8 294C627.7 283 600.3 285 573 292C545.7 299 518.3 311 491 306C463.7 301 436.3 279 409 272C381.7 265 354.3 273 327 290C299.7 307 272.3 333 245.2 344C218 355 191 351 163.8 349C136.7 347 109.3 347 82 326C54.7 305 27.3 263 13.7 242L0 221Z" fill="#ff7300"></path><path d="M0 535L13.7 526C27.3 517 54.7 499 82 495C109.3 491 136.7 501 163.8 506C191 511 218 511 245.2 510C272.3 509 299.7 507 327 500C354.3 493 381.7 481 409 485C436.3 489 463.7 509 491 508C518.3 507 545.7 485 573 481C600.3 477 627.7 491 654.8 496C682 501 709 497 736.2 487C763.3 477 790.7 461 818 465C845.3 469 872.7 493 886.3 505L900 517L900 431L886.3 418C872.7 405 845.3 379 818 379C790.7 379 763.3 405 736.2 404C709 403 682 375 654.8 356C627.7 337 600.3 327 573 348C545.7 369 518.3 421 491 425C463.7 429 436.3 385 409 376C381.7 367 354.3 393 327 414C299.7 435 272.3 451 245.2 459C218 467 191 467 163.8 461C136.7 455 109.3 443 82 424C54.7 405 27.3 379 13.7 366L0 353Z" fill="#ff8c3b"></path><path d="M0 583L13.7 573C27.3 563 54.7 543 82 537C109.3 531 136.7 539 163.8 539C191 539 218 531 245.2 532C272.3 533 299.7 543 327 543C354.3 543 381.7 533 409 538C436.3 543 463.7 563 491 561C518.3 559 545.7 535 573 525C600.3 515 627.7 519 654.8 529C682 539 709 555 736.2 553C763.3 551 790.7 531 818 530C845.3 529 872.7 547 886.3 556L900 565L900 515L886.3 503C872.7 491 845.3 467 818 463C790.7 459 763.3 475 736.2 485C709 495 682 499 654.8 494C627.7 489 600.3 475 573 479C545.7 483 518.3 505 491 506C463.7 507 436.3 487 409 483C381.7 479 354.3 491 327 498C299.7 505 272.3 507 245.2 508C218 509 191 509 163.8 504C136.7 499 109.3 489 82 493C54.7 497 27.3 515 13.7 524L0 533Z" fill="#ffc59d"></path><path d="M0 601L13.7 601C27.3 601 54.7 601 82 601C109.3 601 136.7 601 163.8 601C191 601 218 601 245.2 601C272.3 601 299.7 601 327 601C354.3 601 381.7 601 409 601C436.3 601 463.7 601 491 601C518.3 601 545.7 601 573 601C600.3 601 627.7 601 654.8 601C682 601 709 601 736.2 601C763.3 601 790.7 601 818 601C845.3 601 872.7 601 886.3 601L900 601L900 563L886.3 554C872.7 545 845.3 527 818 528C790.7 529 763.3 549 736.2 551C709 553 682 537 654.8 527C627.7 517 600.3 513 573 523C545.7 533 518.3 557 491 559C463.7 561 436.3 541 409 536C381.7 531 354.3 541 327 541C299.7 541 272.3 531 245.2 530C218 529 191 537 163.8 537C136.7 537 109.3 529 82 535C54.7 541 27.3 561 13.7 571L0 581Z" fill="#ffffff"></path></svg>