<svg id="visual" viewBox="0 0 900 600" width="900" height="600" xmlns="http://www.w3.org/2000/svg" xmlns:xlink="http://www.w3.org/1999/xlink" version="1.1"><path d="M0 67L11.5 64C23 61 46 55 69 52C92 49 115 49 138.2 50C161.3 51 184.7 53 207.8 56C231 59 254 63 277 63C300 63 323 59 346 57C369 55 392 55 415.2 56C438.3 57 461.7 59 484.8 57C508 55 531 49 554 48C577 47 600 51 623 52C646 53 669 51 692.2 49C715.3 47 738.7 45 761.8 46C785 47 808 51 831 55C854 59 877 63 888.5 65L900 67L900 0L888.5 0C877 0 854 0 831 0C808 0 785 0 761.8 0C738.7 0 715.3 0 692.2 0C669 0 646 0 623 0C600 0 577 0 554 0C531 0 508 0 484.8 0C461.7 0 438.3 0 415.2 0C392 0 369 0 346 0C323 0 300 0 277 0C254 0 231 0 207.8 0C184.7 0 161.3 0 138.2 0C115 0 92 0 69 0C46 0 23 0 11.5 0L0 0Z" fill="#ffffff"></path><path d="M0 145L11.5 145C23 145 46 145 69 149C92 153 115 161 138.2 167C161.3 173 184.7 177 207.8 172C231 167 254 153 277 149C300 145 323 151 346 156C369 161 392 165 415.2 165C438.3 165 461.7 161 484.8 157C508 153 531 149 554 144C577 139 600 133 623 131C646 129 669 131 692.2 130C715.3 129 738.7 125 761.8 131C785 137 808 153 831 160C854 167 877 165 888.5 164L900 163L900 65L888.5 63C877 61 854 57 831 53C808 49 785 45 761.8 44C738.7 43 715.3 45 692.2 47C669 49 646 51 623 50C600 49 577 45 554 46C531 47 508 53 484.8 55C461.7 57 438.3 55 415.2 54C392 53 369 53 346 55C323 57 300 61 277 61C254 61 231 57 207.8 54C184.7 51 161.3 49 138.2 48C115 47 92 47 69 50C46 53 23 59 11.5 62L0 65Z" fill="#cea3ff"></path><path d="M0 187L11.5 185C23 183 46 179 69 182C92 185 115 195 138.2 201C161.3 207 184.7 209 207.8 207C231 205 254 199 277 196C300 193 323 193 346 195C369 197 392 201 415.2 201C438.3 201 461.7 197 484.8 196C508 195 531 197 554 194C577 191 600 183 623 180C646 177 669 179 692.2 179C715.3 179 738.7 177 761.8 183C785 189 808 203 831 209C854 215 877 213 888.5 212L900 211L900 161L888.5 162C877 163 854 165 831 158C808 151 785 135 761.8 129C738.7 123 715.3 127 692.2 128C669 129 646 127 623 129C600 131 577 137 554 142C531 147 508 151 484.8 155C461.7 159 438.3 163 415.2 163C392 163 369 159 346 154C323 149 300 143 277 147C254 151 231 165 207.8 170C184.7 175 161.3 171 138.2 165C115 159 92 151 69 147C46 143 23 143 11.5 143L0 143Z" fill="#8d44ff"></path><path d="M0 337L11.5 333C23 329 46 321 69 327C92 333 115 353 138.2 358C161.3 363 184.7 353 207.8 346C231 339 254 335 277 334C300 333 323 335 346 335C369 335 392 333 415.2 329C438.3 325 461.7 319 484.8 317C508 315 531 317 554 312C577 307 600 295 623 298C646 301 669 319 692.2 320C715.3 321 738.7 305 761.8 304C785 303 808 317 831 324C854 331 877 331 888.5 331L900 331L900 209L888.5 210C877 211 854 213 831 207C808 201 785 187 761.8 181C738.7 175 715.3 177 692.2 177C669 177 646 175 623 178C600 181 577 189 554 192C531 195 508 193 484.8 194C461.7 195 438.3 199 415.2 199C392 199 369 195 346 193C323 191 300 191 277 194C254 197 231 203 207.8 205C184.7 207 161.3 205 138.2 199C115 193 92 183 69 180C46 177 23 181 11.5 183L0 185Z" fill="#6600ff"></path><path d="M0 385L11.5 384C23 383 46 381 69 387C92 393 115 407 138.2 407C161.3 407 184.7 393 207.8 384C231 375 254 371 277 374C300 377 323 387 346 391C369 395 392 393 415.2 388C438.3 383 461.7 375 484.8 371C508 367 531 367 554 359C577 351 600 335 623 336C646 337 669 355 692.2 358C715.3 361 738.7 349 761.8 352C785 355 808 373 831 380C854 387 877 383 888.5 381L900 379L900 329L888.5 329C877 329 854 329 831 322C808 315 785 301 761.8 302C738.7 303 715.3 319 692.2 318C669 317 646 299 623 296C600 293 577 305 554 310C531 315 508 313 484.8 315C461.7 317 438.3 323 415.2 327C392 331 369 333 346 333C323 333 300 331 277 332C254 333 231 337 207.8 344C184.7 351 161.3 361 138.2 356C115 351 92 331 69 325C46 319 23 327 11.5 331L0 335Z" fill="#8d44ff"></path><path d="M0 511L11.5 512C23 513 46 515 69 517C92 519 115 521 138.2 526C161.3 531 184.7 539 207.8 544C231 549 254 551 277 545C300 539 323 525 346 521C369 517 392 523 415.2 524C438.3 525 461.7 521 484.8 524C508 527 531 537 554 536C577 535 600 523 623 518C646 513 669 515 692.2 515C715.3 515 738.7 513 761.8 518C785 523 808 535 831 539C854 543 877 539 888.5 537L900 535L900 377L888.5 379C877 381 854 385 831 378C808 371 785 353 761.8 350C738.7 347 715.3 359 692.2 356C669 353 646 335 623 334C600 333 577 349 554 357C531 365 508 365 484.8 369C461.7 373 438.3 381 415.2 386C392 391 369 393 346 389C323 385 300 375 277 372C254 369 231 373 207.8 382C184.7 391 161.3 405 138.2 405C115 405 92 391 69 385C46 379 23 381 11.5 382L0 383Z" fill="#cea3ff"></path><path d="M0 601L11.5 601C23 601 46 601 69 601C92 601 115 601 138.2 601C161.3 601 184.7 601 207.8 601C231 601 254 601 277 601C300 601 323 601 346 601C369 601 392 601 415.2 601C438.3 601 461.7 601 484.8 601C508 601 531 601 554 601C577 601 600 601 623 601C646 601 669 601 692.2 601C715.3 601 738.7 601 761.8 601C785 601 808 601 831 601C854 601 877 601 888.5 601L900 601L900 533L888.5 535C877 537 854 541 831 537C808 533 785 521 761.8 516C738.7 511 715.3 513 692.2 513C669 513 646 511 623 516C600 521 577 533 554 534C531 535 508 525 484.8 522C461.7 519 438.3 523 415.2 522C392 521 369 515 346 519C323 523 300 537 277 543C254 549 231 547 207.8 542C184.7 537 161.3 529 138.2 524C115 519 92 517 69 515C46 513 23 511 11.5 510L0 509Z" fill="#ffffff"></path></svg>