<svg id="visual" viewBox="0 0 900 600" width="900" height="600" xmlns="http://www.w3.org/2000/svg" xmlns:xlink="http://www.w3.org/1999/xlink" version="1.1"><path d="M0 73L13.7 66C27.3 59 54.7 45 82 52C109.3 59 136.7 87 163.8 99C191 111 218 107 245.2 92C272.3 77 299.7 51 327 58C354.3 65 381.7 105 409 114C436.3 123 463.7 101 491 100C518.3 99 545.7 119 573 123C600.3 127 627.7 115 654.8 104C682 93 709 83 736.2 74C763.3 65 790.7 57 818 71C845.3 85 872.7 121 886.3 139L900 157L900 0L886.3 0C872.7 0 845.3 0 818 0C790.7 0 763.3 0 736.2 0C709 0 682 0 654.8 0C627.7 0 600.3 0 573 0C545.7 0 518.3 0 491 0C463.7 0 436.3 0 409 0C381.7 0 354.3 0 327 0C299.7 0 272.3 0 245.2 0C218 0 191 0 163.8 0C136.7 0 109.3 0 82 0C54.7 0 27.3 0 13.7 0L0 0Z" fill="#ffffff"></path><path d="M0 97L13.7 96C27.3 95 54.7 93 82 109C109.3 125 136.7 159 163.8 164C191 169 218 145 245.2 131C272.3 117 299.7 113 327 127C354.3 141 381.7 173 409 181C436.3 189 463.7 173 491 175C518.3 177 545.7 197 573 199C600.3 201 627.7 185 654.8 175C682 165 709 161 736.2 150C763.3 139 790.7 121 818 132C845.3 143 872.7 183 886.3 203L900 223L900 155L886.3 137C872.7 119 845.3 83 818 69C790.7 55 763.3 63 736.2 72C709 81 682 91 654.8 102C627.7 113 600.3 125 573 121C545.7 117 518.3 97 491 98C463.7 99 436.3 121 409 112C381.7 103 354.3 63 327 56C299.7 49 272.3 75 245.2 90C218 105 191 109 163.8 97C136.7 85 109.3 57 82 50C54.7 43 27.3 57 13.7 64L0 71Z" fill="#ffb0bc"></path><path d="M0 145L13.7 149C27.3 153 54.7 161 82 178C109.3 195 136.7 221 163.8 222C191 223 218 199 245.2 179C272.3 159 299.7 143 327 156C354.3 169 381.7 211 409 220C436.3 229 463.7 205 491 207C518.3 209 545.7 237 573 252C600.3 267 627.7 269 654.8 261C682 253 709 235 736.2 222C763.3 209 790.7 201 818 214C845.3 227 872.7 261 886.3 278L900 295L900 221L886.3 201C872.7 181 845.3 141 818 130C790.7 119 763.3 137 736.2 148C709 159 682 163 654.8 173C627.7 183 600.3 199 573 197C545.7 195 518.3 175 491 173C463.7 171 436.3 187 409 179C381.7 171 354.3 139 327 125C299.7 111 272.3 115 245.2 129C218 143 191 167 163.8 162C136.7 157 109.3 123 82 107C54.7 91 27.3 93 13.7 94L0 95Z" fill="#ff557e"></path><path d="M0 277L13.7 271C27.3 265 54.7 253 82 277C109.3 301 136.7 361 163.8 380C191 399 218 377 245.2 361C272.3 345 299.7 335 327 334C354.3 333 381.7 341 409 352C436.3 363 463.7 377 491 391C518.3 405 545.7 419 573 420C600.3 421 627.7 409 654.8 386C682 363 709 329 736.2 313C763.3 297 790.7 299 818 327C845.3 355 872.7 409 886.3 436L900 463L900 293L886.3 276C872.7 259 845.3 225 818 212C790.7 199 763.3 207 736.2 220C709 233 682 251 654.8 259C627.7 267 600.3 265 573 250C545.7 235 518.3 207 491 205C463.7 203 436.3 227 409 218C381.7 209 354.3 167 327 154C299.7 141 272.3 157 245.2 177C218 197 191 221 163.8 220C136.7 219 109.3 193 82 176C54.7 159 27.3 151 13.7 147L0 143Z" fill="#ff0066"></path><path d="M0 319L13.7 316C27.3 313 54.7 307 82 337C109.3 367 136.7 433 163.8 452C191 471 218 443 245.2 417C272.3 391 299.7 367 327 366C354.3 365 381.7 387 409 407C436.3 427 463.7 445 491 458C518.3 471 545.7 479 573 474C600.3 469 627.7 451 654.8 423C682 395 709 357 736.2 338C763.3 319 790.7 319 818 347C845.3 375 872.7 431 886.3 459L900 487L900 461L886.3 434C872.7 407 845.3 353 818 325C790.7 297 763.3 295 736.2 311C709 327 682 361 654.8 384C627.7 407 600.3 419 573 418C545.7 417 518.3 403 491 389C463.7 375 436.3 361 409 350C381.7 339 354.3 331 327 332C299.7 333 272.3 343 245.2 359C218 375 191 397 163.8 378C136.7 359 109.3 299 82 275C54.7 251 27.3 263 13.7 269L0 275Z" fill="#ff557e"></path><path d="M0 415L13.7 409C27.3 403 54.7 391 82 417C109.3 443 136.7 507 163.8 518C191 529 218 487 245.2 465C272.3 443 299.7 441 327 446C354.3 451 381.7 463 409 475C436.3 487 463.7 499 491 514C518.3 529 545.7 547 573 545C600.3 543 627.7 521 654.8 488C682 455 709 411 736.2 397C763.3 383 790.7 399 818 423C845.3 447 872.7 479 886.3 495L900 511L900 485L886.3 457C872.7 429 845.3 373 818 345C790.7 317 763.3 317 736.2 336C709 355 682 393 654.8 421C627.7 449 600.3 467 573 472C545.7 477 518.3 469 491 456C463.7 443 436.3 425 409 405C381.7 385 354.3 363 327 364C299.7 365 272.3 389 245.2 415C218 441 191 469 163.8 450C136.7 431 109.3 365 82 335C54.7 305 27.3 311 13.7 314L0 317Z" fill="#ffb0bc"></path><path d="M0 601L13.7 601C27.3 601 54.7 601 82 601C109.3 601 136.7 601 163.8 601C191 601 218 601 245.2 601C272.3 601 299.7 601 327 601C354.3 601 381.7 601 409 601C436.3 601 463.7 601 491 601C518.3 601 545.7 601 573 601C600.3 601 627.7 601 654.8 601C682 601 709 601 736.2 601C763.3 601 790.7 601 818 601C845.3 601 872.7 601 886.3 601L900 601L900 509L886.3 493C872.7 477 845.3 445 818 421C790.7 397 763.3 381 736.2 395C709 409 682 453 654.8 486C627.7 519 600.3 541 573 543C545.7 545 518.3 527 491 512C463.7 497 436.3 485 409 473C381.7 461 354.3 449 327 444C299.7 439 272.3 441 245.2 463C218 485 191 527 163.8 516C136.7 505 109.3 441 82 415C54.7 389 27.3 401 13.7 407L0 413Z" fill="#ffffff"></path></svg>