<svg id="visual" viewBox="0 0 900 600" width="900" height="600" xmlns="http://www.w3.org/2000/svg" xmlns:xlink="http://www.w3.org/1999/xlink" version="1.1"><path d="M0 13L13.7 13C27.3 13 54.7 13 82 13C109.3 13 136.7 13 163.8 23C191 33 218 53 245.2 58C272.3 63 299.7 53 327 53C354.3 53 381.7 63 409 58C436.3 53 463.7 33 491 35C518.3 37 545.7 61 573 66C600.3 71 627.7 57 654.8 56C682 55 709 67 736.2 64C763.3 61 790.7 43 818 36C845.3 29 872.7 33 886.3 35L900 37L900 0L886.3 0C872.7 0 845.3 0 818 0C790.7 0 763.3 0 736.2 0C709 0 682 0 654.8 0C627.7 0 600.3 0 573 0C545.7 0 518.3 0 491 0C463.7 0 436.3 0 409 0C381.7 0 354.3 0 327 0C299.7 0 272.3 0 245.2 0C218 0 191 0 163.8 0C136.7 0 109.3 0 82 0C54.7 0 27.3 0 13.7 0L0 0Z" fill="#ffffff"></path><path d="M0 67L13.7 79C27.3 91 54.7 115 82 115C109.3 115 136.7 91 163.8 93C191 95 218 123 245.2 131C272.3 139 299.7 127 327 128C354.3 129 381.7 143 409 148C436.3 153 463.7 149 491 155C518.3 161 545.7 177 573 168C600.3 159 627.7 125 654.8 118C682 111 709 131 736.2 141C763.3 151 790.7 151 818 136C845.3 121 872.7 91 886.3 76L900 61L900 35L886.3 33C872.7 31 845.3 27 818 34C790.7 41 763.3 59 736.2 62C709 65 682 53 654.8 54C627.7 55 600.3 69 573 64C545.7 59 518.3 35 491 33C463.7 31 436.3 51 409 56C381.7 61 354.3 51 327 51C299.7 51 272.3 61 245.2 56C218 51 191 31 163.8 21C136.7 11 109.3 11 82 11C54.7 11 27.3 11 13.7 11L0 11Z" fill="#b4b5f2"></path><path d="M0 151L13.7 167C27.3 183 54.7 215 82 212C109.3 209 136.7 171 163.8 168C191 165 218 197 245.2 216C272.3 235 299.7 241 327 242C354.3 243 381.7 239 409 241C436.3 243 463.7 251 491 259C518.3 267 545.7 275 573 260C600.3 245 627.7 207 654.8 193C682 179 709 189 736.2 199C763.3 209 790.7 219 818 211C845.3 203 872.7 177 886.3 164L900 151L900 59L886.3 74C872.7 89 845.3 119 818 134C790.7 149 763.3 149 736.2 139C709 129 682 109 654.8 116C627.7 123 600.3 157 573 166C545.7 175 518.3 159 491 153C463.7 147 436.3 151 409 146C381.7 141 354.3 127 327 126C299.7 125 272.3 137 245.2 129C218 121 191 93 163.8 91C136.7 89 109.3 113 82 113C54.7 113 27.3 89 13.7 77L0 65Z" fill="#5871e2"></path><path d="M0 241L13.7 247C27.3 253 54.7 265 82 262C109.3 259 136.7 241 163.8 243C191 245 218 267 245.2 280C272.3 293 299.7 297 327 303C354.3 309 381.7 317 409 313C436.3 309 463.7 293 491 298C518.3 303 545.7 329 573 324C600.3 319 627.7 283 654.8 270C682 257 709 267 736.2 273C763.3 279 790.7 281 818 273C845.3 265 872.7 247 886.3 238L900 229L900 149L886.3 162C872.7 175 845.3 201 818 209C790.7 217 763.3 207 736.2 197C709 187 682 177 654.8 191C627.7 205 600.3 243 573 258C545.7 273 518.3 265 491 257C463.7 249 436.3 241 409 239C381.7 237 354.3 241 327 240C299.7 239 272.3 233 245.2 214C218 195 191 163 163.8 166C136.7 169 109.3 207 82 210C54.7 213 27.3 181 13.7 165L0 149Z" fill="#0058db"></path><path d="M0 331L13.7 333C27.3 335 54.7 339 82 356C109.3 373 136.7 403 163.8 412C191 421 218 409 245.2 425C272.3 441 299.7 485 327 497C354.3 509 381.7 489 409 461C436.3 433 463.7 397 491 385C518.3 373 545.7 385 573 375C600.3 365 627.7 333 654.8 328C682 323 709 345 736.2 355C763.3 365 790.7 363 818 371C845.3 379 872.7 397 886.3 406L900 415L900 227L886.3 236C872.7 245 845.3 263 818 271C790.7 279 763.3 277 736.2 271C709 265 682 255 654.8 268C627.7 281 600.3 317 573 322C545.7 327 518.3 301 491 296C463.7 291 436.3 307 409 311C381.7 315 354.3 307 327 301C299.7 295 272.3 291 245.2 278C218 265 191 243 163.8 241C136.7 239 109.3 257 82 260C54.7 263 27.3 251 13.7 245L0 239Z" fill="#5871e2"></path><path d="M0 403L13.7 401C27.3 399 54.7 395 82 405C109.3 415 136.7 439 163.8 450C191 461 218 459 245.2 474C272.3 489 299.7 521 327 530C354.3 539 381.7 525 409 500C436.3 475 463.7 439 491 422C518.3 405 545.7 407 573 399C600.3 391 627.7 373 654.8 372C682 371 709 387 736.2 390C763.3 393 790.7 383 818 397C845.3 411 872.7 449 886.3 468L900 487L900 413L886.3 404C872.7 395 845.3 377 818 369C790.7 361 763.3 363 736.2 353C709 343 682 321 654.8 326C627.7 331 600.3 363 573 373C545.7 383 518.3 371 491 383C463.7 395 436.3 431 409 459C381.7 487 354.3 507 327 495C299.7 483 272.3 439 245.2 423C218 407 191 419 163.8 410C136.7 401 109.3 371 82 354C54.7 337 27.3 333 13.7 331L0 329Z" fill="#b4b5f2"></path><path d="M0 601L13.7 601C27.3 601 54.7 601 82 601C109.3 601 136.7 601 163.8 601C191 601 218 601 245.2 601C272.3 601 299.7 601 327 601C354.3 601 381.7 601 409 601C436.3 601 463.7 601 491 601C518.3 601 545.7 601 573 601C600.3 601 627.7 601 654.8 601C682 601 709 601 736.2 601C763.3 601 790.7 601 818 601C845.3 601 872.7 601 886.3 601L900 601L900 485L886.3 466C872.7 447 845.3 409 818 395C790.7 381 763.3 391 736.2 388C709 385 682 369 654.8 370C627.7 371 600.3 389 573 397C545.7 405 518.3 403 491 420C463.7 437 436.3 473 409 498C381.7 523 354.3 537 327 528C299.7 519 272.3 487 245.2 472C218 457 191 459 163.8 448C136.7 437 109.3 413 82 403C54.7 393 27.3 397 13.7 399L0 401Z" fill="#ffffff"></path></svg>